{"title":"The Secret Life of Pets 2016 720p HDTS x264-BiGDADDYVAiN","uid":15365702,"size":1821454101,"categoryP":"video","categoryS":"movies","magnet":"?xt=urn:btih:2623df50df1614c5fb69718bdd4898016402df7b&amp;dn=The+Secret+Life+of+Pets+2016+720p+HDTS+x264-BiGDADDYVAiN&amp;tr=udp%3A%2F%2Ftracker.leechers-paradise.org%3A6969&amp;tr=udp%3A%2F%2Fzer0day.ch%3A1337&amp;tr=udp%3A%2F%2Fopen.demonii.com%3A1337&amp;tr=udp%3A%2F%2Ftracker.coppersurfer.tk%3A6969&amp;tr=udp%3A%2F%2Fexodus.desync.com%3A6969","seeders":17,"leechers":5,"uploader":"makintos13","files":3,"time":1469072590,"description":"The Secret Life of Pets 2016 720p HDTS x264-BiGDADDYVAiN\r\n\r\nscreens:\r\n \nhttps://imgmak.com/T4B\r\n \nhttps://imgmak.com/T4I\r\n \nhttps://imgmak.com/T4q\r\n \nhttps://imgmak.com/T4t\r\n \nhttps://imgmak.com/T42\r\n \nhttps://imgmak.com/T4F\r\n \nhttps://imgmak.com/T4i\r\n \nhttps://imgmak.com/T4j\r\n\r\n\r\nP R E S E N T S . . . .\r\n\r\nThe.Secret.Life.of.Pets.2016.720p.HDTS.x264-BiGDADDYVAiN\r\n\r\niMDB........: http://www.imdb.com/title/tt2709768/\r\n\r\n\r\n\r\nT E C H N i C A L . i N F O . . .\r\n\r\nBasic Information\r\nFormat : Matroska\r\nFormat version : Version 4 / Version 2\r\nFile size : 1.68 GiB\r\nDuration : 1h 23mn\r\nOverall bit rate mode : Variable\r\nOverall bit rate : 2 897 Kbps\r\nEncoded date : UTC 2016-07-20 23:35:39\r\nWriting application : mkvmerge v8.3.0 ('Over the Horizon') 64bit\r\nWriting library : libebml v1.3.1 + libmatroska v1.4.2\r\n\r\nVideo\r\nID : 1\r\nFormat : AVC\r\nFormat/Info : Advanced Video Codec\r\nFormat profile :   \r\nFormat settings, CABAC : Yes\r\nFormat settings, ReFrames : 3 frames\r\nCodec ID : V_MPEG4/ISO/AVC\r\nDuration : 1h 23mn\r\nBit rate mode : Variable\r\nBit rate : 2 703 Kbps\r\nMaximum bit rate : 40.0 Mbps\r\nWidth : 1 280 pixels\r\nHeight : 544 pixels\r\nDisplay aspect ratio : 2.144\r\nOriginal display aspect rat : 2.143\r\nFrame rate mode : Constant\r\nFrame rate : 25.000 fps\r\nColor space : YUV\r\nChroma subsampling : 4:2:0\r\nBit depth : 8 bits\r\nScan type : Progressive\r\nBits/(Pixel*Frame) : 0.155\r\nStream size : 1.57 GiB (93%)\r\nWriting library : x264 core 148 r2692 64f4e24\r\nDefault : Yes\r\nForced : No\r\nColor range : Full\r\nColor primaries : BT.709\r\nTransfer characteristics : BT.709\r\nMatrix coefficients : BT.709\r\n\r\nAudio\r\nID : 2\r\nFormat : AC-3\r\nFormat/Info : Audio Coding 3\r\nMode extension : CM (complete main)\r\nFormat settings, Endianness : Big\r\nCodec ID : A_AC3\r\nDuration : 1h 23mn\r\nBit rate mode : Constant\r\nBit rate : 192 Kbps\r\nChannel(s) : 2 channels\r\nChannel positions : Front: L R\r\nSampling rate : 48.0 KHz\r\nFrame rate : 31.250 fps (1536 spf)\r\nCompression mode : Lossy\r\nStream size : 114 MiB (7%)\r\nDefault : Yes\r\nForced : No\r\n\r\nADDED NOTE..: chopped, cropped and re=sized... then added the ol poo-shine and here we are :) took audio, ran a few filters brought nice lvls and warm tones... pwning the n00bs for years...\r\ncheeky, maybe however; VAiN is where it's at for QUALiTY we are all about having fun, call us re-encoders, rippers, cheaters end of day.. just call US G0DS n you can call me ZEUS :)\r\n\r\nWe are always passionate, accurate and intense","torrent":{"xt":"urn:btih:2623df50df1614c5fb69718bdd4898016402df7b","amp;dn":"The+Secret+Life+of+Pets+2016+720p+HDTS+x264-BiGDADDYVAiN","amp;tr":["udp%3A%2F%2Ftracker.leechers-paradise.org%3A6969","udp%3A%2F%2Fzer0day.ch%3A1337","udp%3A%2F%2Fopen.demonii.com%3A1337","udp%3A%2F%2Ftracker.coppersurfer.tk%3A6969","udp%3A%2F%2Fexodus.desync.com%3A6969"],"infoHash":"2623df50df1614c5fb69718bdd4898016402df7b","infoHashBuffer":{"type":"Buffer","data":[38,35,223,80,223,22,20,197,251,105,113,139,221,72,152,1,100,2,223,123]},"announce":[],"urlList":[]}}